<svg width="16" height="13" viewBox="0 0 16 13" fill="none" xmlns="http://www.w3.org/2000/svg">
<path d="M14.5938 0.0419922H1.40625C0.631813 0.0419922 0 0.673117 0 1.44824V10.8232C0 11.5957 0.629 12.2295 1.40625 12.2295H14.5938C15.3663 12.2295 16 11.6005 16 10.8232V1.44824C16 0.675742 15.371 0.0419922 14.5938 0.0419922ZM14.3996 0.979492L8.02981 7.34927L1.60497 0.979492H14.3996ZM0.9375 10.6291V1.6379L5.45247 6.11415L0.9375 10.6291ZM1.60041 11.292L6.11822 6.77418L7.70125 8.34362C7.8845 8.5253 8.18022 8.52471 8.36272 8.34218L9.90625 6.79865L14.3996 11.292H1.60041ZM15.0625 10.6291L10.5692 6.13574L15.0625 1.64237V10.6291Z" fill="white"/>
</svg>
