<svg width="48" height="48" viewBox="0 0 48 48" fill="none" xmlns="http://www.w3.org/2000/svg">
<path fill-rule="evenodd" clip-rule="evenodd" d="M1.83063 14.56L1.43555 15.6465C6.50577 18.7413 18.0488 24.8322 23.6589 24.8322C29.2691 24.8322 40.6804 18.7084 45.6848 15.6465L45.2897 14.56H33.11V2.11492C27.8073 0.139521 23.0268 -1.44082 14.177 2.11492V14.56H1.83063ZM23.6591 22.5608C26.1139 22.5608 28.1038 20.5709 28.1038 18.1161C28.1038 15.6614 26.1139 13.6715 23.6591 13.6715C21.2044 13.6715 19.2145 15.6614 19.2145 18.1161C19.2145 20.5709 21.2044 22.5608 23.6591 22.5608Z" fill="white"/>
<path d="M20.1492 47.212C18.1001 47.212 15.3548 46.1585 14.2383 45.6317L14.1399 33.2853H1.92385C-0.361713 28.7024 -0.144979 22.4206 0.249083 19.8525C12.8591 23.4873 15.9132 26.0751 17.2924 28.248C19.2627 31.0136 19.8537 41.7138 20.1492 47.212Z" fill="white"/>
<path d="M27.1164 47.2119C29.1655 47.2119 31.9108 46.1621 33.0273 45.6372L33.1258 33.3355H45.3418C47.6273 28.7691 47.4106 22.5099 47.0165 19.9512C34.4066 23.5728 31.3524 26.1513 29.9733 28.3164C28.003 31.072 27.412 41.7335 27.1164 47.2119Z" fill="white"/>
</svg>
