<svg width="16" height="16" viewBox="0 0 16 16" fill="none" xmlns="http://www.w3.org/2000/svg">
<g clip-path="url(#clip0)">
<path d="M6.62583 9.37435C5.09866 7.84718 4.75383 6.32 4.67603 5.70814C4.6543 5.53896 4.71252 5.36929 4.83355 5.24911L6.06941 4.0138C6.25121 3.83211 6.28347 3.54896 6.14721 3.33104L4.17948 0.275588C4.02873 0.0342778 3.71919 -0.0528137 3.46472 0.074485L0.305828 1.56221C0.100051 1.66354 -0.0209844 1.88217 0.0023793 2.11035C0.167897 3.68276 0.853414 7.54814 4.65203 11.347C8.45066 15.1459 12.3155 15.8312 13.8887 15.9967C14.1169 16.0201 14.3355 15.899 14.4369 15.6932L15.9246 12.5343C16.0514 12.2804 15.9649 11.9717 15.7246 11.8207L12.6691 9.85352C12.4513 9.71711 12.1682 9.74914 11.9864 9.93076L10.7511 11.1666C10.6309 11.2877 10.4612 11.3459 10.292 11.3241C9.68017 11.2463 8.153 10.9015 6.62583 9.37435Z" fill="white"/>
</g>
<defs>
<clipPath id="clip0">
<rect width="16" height="16" fill="white"/>
</clipPath>
</defs>
</svg>
